HIERARCHY
ROOT Hips
{
	OFFSET 0.000000 0.000000 0.000000
	CHANNELS 6 Xposition Yposition Zposition Xrotation Yrotation Zrotation
	JOINT LeftUpLeg_virtual
	{
		OFFSET 0.000000 0.000000 0.000000
		CHANNELS 3 Xrotation Yrotation Zrotation
		JOINT LeftUpLeg
		{
			OFFSET 13.026900 -6.336304 -1.092800
			CHANNELS 3 Xrotation Yrotation Zrotation
			JOINT LeftLeg
			{
				OFFSET 0.524474 -46.096886 9.782700
				CHANNELS 3 Xrotation Yrotation Zrotation
				JOINT LeftFoot
				{
					OFFSET -0.524474 -53.427422 -12.948200
					CHANNELS 3 Xrotation Yrotation Zrotation
					JOINT LeftToeBase
					{
						OFFSET 0.192200 -14.009700 16.364100
						CHANNELS 3 Xrotation Yrotation Zrotation
						JOINT LeftToe_End
						{
							OFFSET -1.784700 -0.561700 9.474800
							CHANNELS 3 Xrotation Yrotation Zrotation
							End Site
							{
								OFFSET 0 0 0
							}
						}
					}
				}
			}
		}
	}
	JOINT RightUpLeg_virtual
	{
		OFFSET 0.000000 0.000000 0.000000
		CHANNELS 3 Xrotation Yrotation Zrotation
		JOINT RightUpLeg
		{
			OFFSET -12.883000 -6.336304 -1.092800
			CHANNELS 3 Xrotation Yrotation Zrotation
			JOINT RightLeg
			{
				OFFSET -0.524587 -46.096825 9.782800
				CHANNELS 3 Xrotation Yrotation Zrotation
				JOINT RightFoot
				{
					OFFSET 0.524587 -53.427383 -12.948300
					CHANNELS 3 Xrotation Yrotation Zrotation
					JOINT RightToeBase
					{
						OFFSET -0.192200 -14.009700 16.364100
						CHANNELS 3 Xrotation Yrotation Zrotation
						JOINT RightToe_End
						{
							OFFSET 1.784700 -0.561700 9.474800
							CHANNELS 3 Xrotation Yrotation Zrotation
							End Site
							{
								OFFSET 0 0 0
							}
						}
					}
				}
			}
		}
	}
	JOINT Spine_virtual
	{
		OFFSET 0.000000 0.000000 0.000000
		CHANNELS 3 Xrotation Yrotation Zrotation
		JOINT Spine
		{
			OFFSET 0.072000 7.257294 -0.789700
			CHANNELS 3 Xrotation Yrotation Zrotation
			JOINT Spine1
			{
				OFFSET 0.000000 12.508769 -0.658067
				CHANNELS 3 Xrotation Yrotation Zrotation
				JOINT Spine1_split
				{
					OFFSET 0.000000 12.508769 -0.658067
					CHANNELS 3 Xrotation Yrotation Zrotation
					JOINT Spine2
					{
						OFFSET 0.000000 12.508769 -0.658067
						CHANNELS 3 Xrotation Yrotation Zrotation
						JOINT Neck_virtual
						{
							OFFSET 0.000000 0.000000 0.000000
							CHANNELS 3 Xrotation Yrotation Zrotation
							JOINT Neck
							{
								OFFSET 0.000000 14.033295 7.520400
								CHANNELS 3 Xrotation Yrotation Zrotation
								JOINT Head
								{
									OFFSET 0.000000 8.198502 5.703100
									CHANNELS 3 Xrotation Yrotation Zrotation
									JOINT HeadTop_End
									{
										OFFSET 0.000000 17.760803 13.332701
										CHANNELS 3 Xrotation Yrotation Zrotation
										End Site
										{
											OFFSET 0 0 0
										}
									}
								}
							}
						}
						JOINT LeftShoulder_virtual
						{
							OFFSET 0.000000 0.000000 0.000000
							CHANNELS 3 Xrotation Yrotation Zrotation
							JOINT LeftShoulder
							{
								OFFSET 6.292450 5.785301 -0.669000
								CHANNELS 3 Xrotation Yrotation Zrotation
								JOINT LeftShoulder_split
								{
									OFFSET 6.292450 5.785301 -0.669000
									CHANNELS 3 Xrotation Yrotation Zrotation
									JOINT LeftArm
									{
										OFFSET 13.907140 -6.093903 1.965100
										CHANNELS 3 Xrotation Yrotation Zrotation
										JOINT LeftForeArm
										{
											OFFSET 34.140198 0.000000 0.000000
											CHANNELS 3 Xrotation Yrotation Zrotation
											JOINT LeftHand
											{
												OFFSET 40.960209 0.000000 0.000000
												CHANNELS 3 Xrotation Yrotation Zrotation
												End Site
												{
													OFFSET 0 0 0
												}
											}
										}
									}
								}
							}
						}
						JOINT RightShoulder_virtual
						{
							OFFSET 0.000000 0.000000 0.000000
							CHANNELS 3 Xrotation Yrotation Zrotation
							JOINT RightShoulder
							{
								OFFSET -6.292450 5.785301 -0.669000
								CHANNELS 3 Xrotation Yrotation Zrotation
								JOINT RightShoulder_split
								{
									OFFSET -6.292450 5.785301 -0.669000
									CHANNELS 3 Xrotation Yrotation Zrotation
									JOINT RightArm
									{
										OFFSET -13.907140 -6.093903 1.965100
										CHANNELS 3 Xrotation Yrotation Zrotation
										JOINT RightForeArm
										{
											OFFSET -34.140198 0.000000 0.000000
											CHANNELS 3 Xrotation Yrotation Zrotation
											JOINT RightHand
											{
												OFFSET -40.960209 0.000000 0.000000
												CHANNELS 3 Xrotation Yrotation Zrotation
												End Site
												{
													OFFSET 0 0 0
												}
											}
										}
									}
								}
							}
						}
					}
				}
			}
		}
	}
}
MOTION
Frames: 6
Frame Time: 0.03333333
21.286886 44.313118 484.727905 0.000000 0.000000 0.000000 56.721989 -43.818416 95.753221 -65.272730 -10.932726 9.645802 36.588681 -5.824773 2.863563 -1.867189 5.440192 -16.329761 -0.880920 2.753177 -10.110584 0.000000 0.000000 0.000000 47.702072 -45.335483 96.286215 -98.999904 -38.027966 -16.315495 132.220687 -3.350537 -19.297450 41.953426 16.252521 40.193638 9.714550 -1.964364 9.139021 0.000000 0.000000 0.000000 56.026710 -52.554481 96.568384 7.877390 -9.158814 -4.831470 21.996324 -11.357068 -0.008036 -0.684495 2.926999 -1.116325 0.000000 0.000000 0.000000 16.755596 -12.361931 -0.118723 14.417930 3.881439 -7.082398 -7.978254 24.296981 -18.653378 0.000000 0.000000 0.000000 20.722954 -12.288791 1.424867 1.060712 -0.386152 -20.434299 -3.077540 -0.551945 1.931905 3.944713 2.585467 -55.853626 29.709165 -16.813757 -4.193390 0.000000 0.000000 0.000000 19.908401 -12.720117 -0.028672 3.276804 21.698171 4.474434 3.862820 6.923700 6.621001 -31.112157 -9.060788 -0.089220 -27.482424 19.403609 3.770167 0.000000 0.000000 0.000000 
21.449873 45.250729 500.253235 0.000000 0.000000 0.000000 55.629237 -42.981079 89.192258 -74.297548 -13.636937 11.119552 37.342423 -6.194299 -0.214337 3.315142 4.473948 -20.222138 0.504201 2.583843 -11.434081 0.000000 0.000000 0.000000 44.878615 -43.688656 89.183419 -104.454267 -35.688893 -25.424454 134.360476 -0.910112 -21.132773 43.321902 19.391539 42.776727 10.833657 -2.199627 10.062443 0.000000 0.000000 0.000000 54.629158 -52.302730 90.458663 8.535714 -7.096476 -4.064089 21.970208 -9.242481 -0.094859 -1.499227 2.906517 -0.810975 0.000000 0.000000 0.000000 16.525836 -10.205429 -0.489687 12.482843 3.872276 -5.106995 -11.342812 23.604792 -15.476425 0.000000 0.000000 0.000000 20.165918 -10.176526 0.815091 0.804136 -0.773845 -21.031717 -2.479790 0.047242 2.393881 7.186682 3.858554 -55.106253 31.234814 -16.447381 -4.878907 0.000000 0.000000 0.000000 19.742496 -10.387794 -0.219206 2.516836 21.873257 5.708374 4.301759 5.852327 6.945725 -33.934480 -11.846856 2.942389 -28.462016 17.888501 2.563205 0.000000 0.000000 0.000000 
21.390003 45.447311 515.194519 0.000000 0.000000 0.000000 52.661756 -42.719579 81.027422 -85.815542 -14.849081 12.826580 42.117528 -6.930619 -2.949062 10.506217 1.505975 -22.659369 1.548684 2.652795 -12.498862 0.000000 0.000000 0.000000 42.034565 -43.095328 80.303565 -106.273372 -32.851373 -32.882843 135.630632 1.251462 -21.907939 42.921073 19.568934 43.645267 13.832969 -1.933581 10.370040 0.000000 0.000000 0.000000 50.971431 -52.069056 82.191273 9.283266 -4.529615 -3.656657 21.324112 -6.865847 -0.535127 -1.769552 2.834463 0.187522 0.000000 0.000000 0.000000 16.013612 -7.804774 -1.185125 9.510139 3.684633 -2.682137 -14.519326 21.983225 -12.096957 0.000000 0.000000 0.000000 19.092607 -7.811560 -0.297779 0.533697 -0.959756 -21.403106 -0.943773 -0.744612 2.344783 11.257112 5.265894 -52.408233 32.559461 -17.808234 -4.729260 0.000000 0.000000 0.000000 19.209699 -7.688532 -0.792224 1.785893 21.234186 7.254783 5.544360 5.196822 6.507295 -34.249850 -16.917795 10.914941 -29.008971 20.981665 2.805873 0.000000 0.000000 0.000000 
20.880444 45.025692 529.843506 0.000000 0.000000 0.000000 47.895363 -43.180948 71.315747 -98.262838 -14.545228 15.612721 51.444585 -7.633650 -4.855119 18.276282 -2.313107 -22.308547 0.692968 3.070302 -12.864613 0.000000 0.000000 0.000000 38.364916 -43.967912 69.798407 -103.559554 -31.462112 -38.666428 136.077121 3.044071 -21.092176 40.331557 16.106964 42.270231 19.798412 -1.026989 10.144689 0.000000 0.000000 0.000000 45.406312 -51.551461 72.111682 9.942525 -1.809983 -3.443139 20.162689 -4.727490 -1.181113 -1.499588 2.848743 1.288705 0.000000 0.000000 0.000000 15.321182 -5.655450 -2.017242 5.914341 3.713964 -0.376890 -17.075627 20.510392 -9.154258 0.000000 0.000000 0.000000 17.744490 -5.687889 -1.660193 0.362585 -0.930496 -21.231529 1.279245 -2.148713 1.978187 15.032020 6.949139 -47.344085 33.419036 -20.735884 -3.880367 0.000000 0.000000 0.000000 18.402002 -5.164674 -1.562166 1.253140 20.003534 8.610435 7.466238 5.254809 5.921052 -29.717217 -22.981848 24.111148 -29.202966 28.769423 4.533197 0.000000 0.000000 0.000000 
19.699322 44.292393 544.233826 0.000000 0.000000 0.000000 42.133227 -44.011246 60.460425 -109.728936 -13.279412 18.966144 65.038625 -7.753797 -5.516439 24.457576 -5.201342 -18.429158 -1.866058 3.626427 -12.218910 0.000000 0.000000 0.000000 34.865370 -45.731853 59.008866 -94.614799 -33.185523 -41.421245 133.813719 4.711768 -19.140282 34.794479 10.349600 40.038511 23.911481 -0.091515 9.300948 0.000000 0.000000 0.000000 39.110008 -50.227797 60.847929 10.070283 0.644449 -3.182233 18.663360 -3.245318 -1.842121 -0.637989 2.686135 1.538017 0.000000 0.000000 0.000000 14.626905 -4.159193 -2.791936 2.322794 4.325709 1.425983 -18.898770 20.315616 -6.742242 0.000000 0.000000 0.000000 16.393048 -4.236547 -2.891621 0.281398 -0.735872 -20.058773 3.536827 -3.045664 0.825456 16.165939 9.152324 -39.609138 32.949236 -24.282858 -2.979810 0.000000 0.000000 0.000000 17.355285 -3.390986 -2.328668 1.016085 18.548729 9.366844 9.614181 5.465003 5.162661 -20.154906 -27.537981 41.526666 -29.602719 40.778647 7.904859 0.000000 0.000000 0.000000 
17.727335 43.794628 558.235107 0.000000 0.000000 0.000000 36.957191 -45.095887 49.763355 -118.366837 -10.946500 22.219399 80.101494 -6.729142 -5.228745 26.878213 -6.181287 -11.601657 -4.760016 4.028765 -10.663460 0.000000 0.000000 0.000000 31.732997 -46.610632 48.464785 -79.205551 -37.223459 -39.615087 127.407740 7.079113 -16.837065 28.927432 6.061998 39.878428 22.446353 0.315704 8.297537 0.000000 0.000000 0.000000 33.864156 -48.006176 49.721564 9.408086 2.318418 -2.751177 17.048220 -2.677140 -2.407355 0.126827 2.113375 1.346529 0.000000 0.000000 0.000000 14.005726 -3.556999 -3.406540 -1.050850 5.667554 2.551211 -20.036990 21.752173 -4.755664 0.000000 0.000000 0.000000 15.106722 -3.707104 -3.795751 0.337457 -0.580015 -17.924882 4.510294 -2.753173 -0.815647 12.950739 11.624658 -29.637301 30.105981 -26.852272 -2.929133 0.000000 0.000000 0.000000 16.115425 -2.651502 -2.982705 1.043255 17.175962 9.354883 11.307890 6.144167 4.429457 -8.680016 -28.210597 59.211197 -32.270315 56.302752 14.475927 0.000000 0.000000 0.000000 
